<svg xmlns="http://www.w3.org/2000/svg" width="33" height="31" viewBox="0 0 33 31" fill="none">
                  <rect x="4.06797" y="2.90574" width="24.4083" height="24.4083" rx="3.84742" stroke="var(--static2)" strokeWidth="1.1623"></rect>
                  <path d="M12 18.5968H11.6229C10.3391 18.5968 9.29834 17.5561 9.29834 16.2722V9.29842C9.29834 8.01458 10.3391 6.97382 11.6229 6.97382H16.2722C17.556 6.97382 18.5968 8.01458 18.5968 9.29842V16.2722C18.5968 17.5561 17.556 18.5968 16.2722 18.5968H16" stroke="var(--static2)" strokeWidth="1.1623"></path>
                  <path d="M20.5 11.623H20.9216C22.2054 11.623 23.2462 12.6638 23.2462 13.9477V20.9215C23.2462 22.2053 22.2054 23.2461 20.9216 23.2461H16.2724C14.9885 23.2461 13.9478 22.2053 13.9478 20.9215V19.7592V13.9477C13.9478 12.6638 14.9885 11.623 16.2724 11.623H16.5" stroke="var(--static2)" strokeWidth="1.1623"></path>
              </svg>