<svg width="29" height="29" viewBox="0 0 29 29" fill="#000" xmlns="http://www.w3.org/2000/svg">
                    <path d="M6.65647 6.61473C7.17328 6.09921 7.1736 5.26212 6.65717 4.74621L6.15486 4.24442C5.63882 3.7289 4.80235 3.73006 4.28774 4.24702V4.24702C3.77544 4.76166 3.77544 5.59359 4.28774 6.10823L4.78865 6.61143C5.30337 7.1285 6.13993 7.12998 6.65647 6.61473V6.61473ZM3.95455 14.5C3.95455 13.7687 3.36168 13.1758 2.63034 13.1758H1.3242C0.592865 13.1758 0 13.7687 0 14.5V14.5C0 15.2313 0.592865 15.8242 1.3242 15.8242H2.63034C3.36168 15.8242 3.95455 15.2313 3.95455 14.5V14.5ZM15.8182 1.31818C15.8182 0.590169 15.228 0 14.5 0V0C13.772 0 13.1818 0.59017 13.1818 1.31818V2.58821C13.1818 3.31622 13.772 3.90639 14.5 3.90639V3.90639C15.228 3.90639 15.8182 3.31622 15.8182 2.58821V1.31818ZM24.7136 6.10693C25.2251 5.59301 25.2251 4.76224 24.7136 4.24832V4.24832C24.1987 3.73107 23.3613 3.73107 22.8465 4.24832L22.3455 4.75151C21.834 5.26544 21.8339 6.0962 22.3455 6.61013V6.61013C22.8604 7.12738 23.6977 7.12738 24.2126 6.61013L24.7136 6.10693ZM22.3258 22.3965C21.8174 22.9072 21.8163 23.7323 22.3232 24.2445L22.8359 24.7623C23.3489 25.2806 24.1859 25.2817 24.7004 24.7649V24.7649C25.2115 24.2514 25.2104 23.421 24.6978 22.9089L24.1822 22.3939C23.6692 21.8813 22.8375 21.8825 22.3258 22.3965V22.3965ZM26.3697 13.1758C25.6383 13.1758 25.0455 13.7687 25.0455 14.5V14.5C25.0455 15.2313 25.6383 15.8242 26.3697 15.8242H27.6758C28.4071 15.8242 29 15.2313 29 14.5V14.5C29 13.7687 28.4071 13.1758 27.6758 13.1758H26.3697ZM14.5 6.55479C10.1368 6.55479 6.59091 10.1169 6.59091 14.5C6.59091 18.8831 10.1368 22.4452 14.5 22.4452C18.8632 22.4452 22.4091 18.8831 22.4091 14.5C22.4091 10.1169 18.8632 6.55479 14.5 6.55479ZM13.1818 27.6818C13.1818 28.4098 13.772 29 14.5 29V29C15.228 29 15.8182 28.4098 15.8182 27.6818V26.4118C15.8182 25.6838 15.228 25.0936 14.5 25.0936V25.0936C13.772 25.0936 13.1818 25.6838 13.1818 26.4118V27.6818ZM4.28127 22.8931C3.77213 23.4074 3.77329 24.2362 4.28386 24.7491V24.7491C4.79976 25.2673 5.63906 25.2662 6.15352 24.7465L6.65964 24.2352C7.16878 23.7209 7.16762 22.8921 6.65705 22.3792V22.3792C6.14115 21.861 5.30185 21.8621 4.78739 22.3818L4.28127 22.8931Z" fill="black"></path>
                    </svg>